<svg xmlns="http://www.w3.org/2000/svg" xmlns:svg="http://www.w3.org/2000/svg" id="svg2" width="1195.459" height="847.5" version="1.1"><metadata id="metadata3033"/><rect id="rect3000" width="95.428" height="847.5" x="550.015" y="0" style="fill:red;fill-opacity:.15"/><rect id="rect3001" width="95.428" height="565" x="550.015" y="282.5" style="fill:red;fill-opacity:.15"/><rect id="rect3002" width="95.428" height="282.5" x="550.015" y="565" style="fill:red;fill-opacity:.15"/><path style="fill:red;fill-opacity:.15" id="path3021" d="M 0,202.7216 A 847.5,847.5 0 0 1 550.0155,0 v 847.5 z"/><path style="fill:red;fill-opacity:.15" id="path3021" d="M 183.3385,417.6477 A 565,565 0 0 1 550.0155,282.5 v 565 z"/><path style="fill:red;fill-opacity:.15" id="path3021" d="M 366.677,632.5739 A 282.5,282.5 0 0 1 550.0155,565 v 282.5 z"/><path style="fill:red;fill-opacity:.15" id="path3021" d="M 1195.459,202.7216 A 847.5,847.5 1 0 0 645.444,0 v 847.5 z"/><path style="fill:red;fill-opacity:.15" id="path3021" d="M 1012.121,417.6477 A 565,565 1 0 0 645.444,282.5 v 565 z"/><path style="fill:red;fill-opacity:.15" id="path3021" d="M 828.7825,632.5739 A 282.5,282.5 1 0 0 645.444,565 v 282.5 z"/></svg>