<svg xmlns="http://www.w3.org/2000/svg" xmlns:svg="http://www.w3.org/2000/svg" id="svg2" width="858.659" height="1496.139" version="1.1"><metadata id="metadata3033"/><rect id="rect3000" width="847.5" height="226" x="0" y="635.07" style="fill:orange;fill-opacity:.15"/><rect id="rect3001" width="565" height="226" x="282.5" y="635.07" style="fill:orange;fill-opacity:.15"/><rect id="rect3002" width="282.5" height="226" x="565" y="635.07" style="fill:orange;fill-opacity:.15"/><path style="fill:orange;fill-opacity:.15" id="path3021" d="M 286.3023,0 A 847.5,847.5 1 0 0 0,635.0696 h 858.6588 z"/><path style="fill:orange;fill-opacity:.15" id="path3021" d="M 475.4429,209.8655 A 565,565 1 0 0 282.5,635.0696 h 576.15875 z"/><path style="fill:orange;fill-opacity:.15" id="path3021" d="M 664.6111,419.7608 A 282.5,282.5 1 0 0 565,635.0696 h 293.65875 z"/><path style="fill:orange;fill-opacity:.15" id="path3021" d="M 286.3023,1496.139 A 847.5,847.5 0 0 1 0,861.0696 h 858.6588 z"/><path style="fill:orange;fill-opacity:.15" id="path3021" d="M 475.4429,1286.274 A 565,565 0 0 1 282.5,861.0696 h 576.15875 z"/><path style="fill:orange;fill-opacity:.15" id="path3021" d="M 664.6111,1076.378 A 282.5,282.5 0 0 1 565,861.0696 h 293.65875 z"/></svg>