<svg xmlns="http://www.w3.org/2000/svg" xmlns:svg="http://www.w3.org/2000/svg" id="svg2" width="1338.447" height="847.5" version="1.1"><metadata id="metadata3033"/><rect id="rect3000" width="203.683" height="847.5" x="567.382" y="0" style="fill:red;fill-opacity:.15"/><rect id="rect3001" width="203.683" height="565" x="567.382" y="0" style="fill:red;fill-opacity:.15"/><rect id="rect3002" width="203.683" height="282.5" x="567.382" y="0" style="fill:red;fill-opacity:.15"/><path style="fill:red;fill-opacity:.15" id="path3021" d="M 0,629.5503 A 847.5,847.5 1 0 0 567.3822,847.5 v -847.5 z"/><path style="fill:red;fill-opacity:.15" id="path3021" d="M 189.1274,419.7002 A 565,565 1 0 0 567.3822,565 v -565 z"/><path style="fill:red;fill-opacity:.15" id="path3021" d="M 378.2548,209.8501 A 282.5,282.5 1 0 0 567.3822,282.5 v -282.5 z"/><path style="fill:red;fill-opacity:.15" id="path3021" d="M 1338.447,629.5503 A 847.5,847.5 0 0 1 771.0647,847.5 v -847.5 z"/><path style="fill:red;fill-opacity:.15" id="path3021" d="M 1149.32,419.7002 A 565,565 0 0 1 771.0647,565 v -565 z"/><path style="fill:red;fill-opacity:.15" id="path3021" d="M 960.1922,209.8501 A 282.5,282.5 0 0 1 771.0647,282.5 v -282.5 z"/></svg>