<svg xmlns="http://www.w3.org/2000/svg" xmlns:svg="http://www.w3.org/2000/svg" id="svg2" width="858.659" height="1496.139" version="1.1"><metadata id="metadata3033"/><rect id="rect3000" width="847.5" height="226" x="11.159" y="635.07" style="fill:orange;fill-opacity:.15"/><rect id="rect3001" width="565" height="226" x="11.159" y="635.07" style="fill:orange;fill-opacity:.15"/><rect id="rect3002" width="282.5" height="226" x="11.159" y="635.07" style="fill:orange;fill-opacity:.15"/><path style="fill:orange;fill-opacity:.15" id="path3021" d="M 572.3565,0 A 847.5,847.5 0 0 1 858.6588,635.0696 h -858.6588 z"/><path style="fill:orange;fill-opacity:.15" id="path3021" d="M 383.2159,209.8655 A 565,565 0 0 1 576.1588,635.0696 h -576.15875 z"/><path style="fill:orange;fill-opacity:.15" id="path3021" d="M 194.0477,419.7608 A 282.5,282.5 0 0 1 293.6588,635.0696 h -293.65875 z"/><path style="fill:orange;fill-opacity:.15" id="path3021" d="M 572.3565,1496.139 A 847.5,847.5 1 0 0 858.6588,861.0696 h -858.6588 z"/><path style="fill:orange;fill-opacity:.15" id="path3021" d="M 383.2159,1286.274 A 565,565 1 0 0 576.1588,861.0696 h -576.15875 z"/><path style="fill:orange;fill-opacity:.15" id="path3021" d="M 194.0477,1076.378 A 282.5,282.5 1 0 0 293.6588,861.0696 h -293.65875 z"/></svg>