<svg xmlns="http://www.w3.org/2000/svg" xmlns:svg="http://www.w3.org/2000/svg" id="svg2" width="3376" height="3390" version="1.1"><metadata id="metadata3033"/><rect id="rect3000" width="226" height="1412.5" x="1412.5" y="0" style="fill:#0f0;fill-opacity:.15"/><rect id="rect3001" width="226" height="1130" x="1412.5" y="282.5" style="fill:#0f0;fill-opacity:.15"/><rect id="rect3002" width="226" height="847.5" x="1412.5" y="565" style="fill:#0f0;fill-opacity:.15"/><rect id="rect3003" width="226" height="565" x="1412.5" y="847.5" style="fill:#0f0;fill-opacity:.15"/><rect id="rect3004" width="226" height="282.5" x="1412.5" y="1130" style="fill:#0f0;fill-opacity:.15"/><rect id="rect3005" width="226" height="1412.5" x="1412.5" y="1963.5" style="fill:#0f0;fill-opacity:.15"/><rect id="rect3006" width="226" height="1130" x="1412.5" y="1963.5" style="fill:#0f0;fill-opacity:.15"/><rect id="rect3007" width="226" height="847.5" x="1412.5" y="1963.5" style="fill:#0f0;fill-opacity:.15"/><rect id="rect3008" width="226" height="565" x="1412.5" y="1963.5" style="fill:#0f0;fill-opacity:.15"/><rect id="rect3009" width="226" height="282.5" x="1412.5" y="1963.5" style="fill:#0f0;fill-opacity:.15"/><rect id="rect3005" width="1412.5" height="551" x="0" y="1412.5" style="fill:#0f0;fill-opacity:.15"/><rect id="rect3006" width="1130" height="551" x="282.5" y="1412.5" style="fill:#0f0;fill-opacity:.15"/><rect id="rect3007" width="847.5" height="551" x="565" y="1412.5" style="fill:#0f0;fill-opacity:.15"/><rect id="rect3008" width="565" height="551" x="847.5" y="1412.5" style="fill:#0f0;fill-opacity:.15"/><rect id="rect3009" width="282.5" height="551" x="1130" y="1412.5" style="fill:#0f0;fill-opacity:.15"/><rect id="rect3005" width="1412.5" height="551" x="1638.5" y="1412.5" style="fill:#0f0;fill-opacity:.15"/><rect id="rect3006" width="1130" height="551" x="1638.5" y="1412.5" style="fill:#0f0;fill-opacity:.15"/><rect id="rect3007" width="847.5" height="551" x="1638.5" y="1412.5" style="fill:#0f0;fill-opacity:.15"/><rect id="rect3008" width="565" height="551" x="1638.5" y="1412.5" style="fill:#0f0;fill-opacity:.15"/><rect id="rect3009" width="282.5" height="551" x="1638.5" y="1412.5" style="fill:#0f0;fill-opacity:.15"/><path style="fill:#0f0;fill-opacity:.15" id="path3011" d="M 0,1412.5 A 1412.5,1412.5 0 0 1 1412.5,0 V 1412.5 z"/><path style="fill:#0f0;fill-opacity:.15" id="path3012" d="M 282.5,1412.5 A 1130,1130 0 0 1 1412.5,282.5 V 1412.5 z"/><path style="fill:#0f0;fill-opacity:.15" id="path3013" d="M 565,1412.5 A 847.5,847.5 0 0 1 1412.5,565 V 1412.5 z"/><path style="fill:#0f0;fill-opacity:.15" id="path3014" d="M 847.5,1412.5 A 565,565 0 0 1 1412.5,847.5 V 1412.5 z"/><path style="fill:#0f0;fill-opacity:.15" id="path3015" d="M 1130,1412.5 A 282.5,282.5 0 0 1 1412.5,1130 V 1412.5 z"/><path style="fill:#0f0;fill-opacity:.15" id="path3021" d="M 1412.5,1963.5 v 1412.5 A 1412.5,1412.5 0 0 1 0,1963.5 z"/><path style="fill:#0f0;fill-opacity:.15" id="path3022" d="M 1412.5,1963.5 v 1130 A 1130,1130 0 0 1 282.5,1963.5 z"/><path style="fill:#0f0;fill-opacity:.15" id="path3023" d="M 1412.5,1963.5 v 847.5 A 847.5,847.5 0 0 1 565,1963.5 z"/><path style="fill:#0f0;fill-opacity:.15" id="path3024" d="M 1412.5,1963.5 v 565 A 565,565 0 0 1 847.5,1963.5 z"/><path style="fill:#0f0;fill-opacity:.15" id="path3025" d="M 1412.5,1963.5 v 282.5 A 282.5,282.5 0 0 1 1130,1963.5 z"/><path style="fill:#0f0;fill-opacity:.15" id="path3021" d="M 1638.5,1412.5 v -1412.5 A 1412.5,1412.5 0 0 1 3051,1412.5 z"/><path style="fill:#0f0;fill-opacity:.15" id="path3022" d="M 1638.5,1412.5 v -1130 A 1130,1130 0 0 1 2768.5,1412.5 z"/><path style="fill:#0f0;fill-opacity:.15" id="path3023" d="M 1638.5,1412.5 v -847.5 A 847.5,847.5 0 0 1 2486,1412.5 z"/><path style="fill:#0f0;fill-opacity:.15" id="path3024" d="M 1638.5,1412.5 v -565 A 565,565 0 0 1 2203.5,1412.5 z"/><path style="fill:#0f0;fill-opacity:.15" id="path3025" d="M 1638.5,1412.5 v -282.5 A 282.5,282.5 0 0 1 1921,1412.5 z"/><path style="fill:#0f0;fill-opacity:.15" id="path3021" d="M 1638.5,1963.5 h 1412.5 A 1412.5,1412.5 0 0 1 1638.5,3376 z"/><path style="fill:#0f0;fill-opacity:.15" id="path3022" d="M 1638.5,1963.5 h 1130 A 1130,1130 0 0 1 1638.5,3093.5 z"/><path style="fill:#0f0;fill-opacity:.15" id="path3023" d="M 1638.5,1963.5 h 847.5 A 847.5,847.5 0 0 1 1638.5,2811 z"/><path style="fill:#0f0;fill-opacity:.15" id="path3024" d="M 1638.5,1963.5 h 565 A 565,565 0 0 1 1638.5,2528.5 z"/><path style="fill:#0f0;fill-opacity:.15" id="path3025" d="M 1638.5,1963.5 h 282.5 A 282.5,282.5 0 0 1 1638.5,2246 z"/></svg>