<svg xmlns="http://www.w3.org/2000/svg" xmlns:svg="http://www.w3.org/2000/svg" id="svg2" width="3051" height="1963.5" version="1.1"><metadata id="metadata3033"/><rect id="rect3000" width="226" height="1412.5" x="1377.85" y="0" style="fill:#0f0;fill-opacity:.15"/><rect id="rect3001" width="226" height="1130" x="1377.85" y="282.5" style="fill:#0f0;fill-opacity:.15"/><rect id="rect3002" width="226" height="847.5" x="1377.85" y="565" style="fill:#0f0;fill-opacity:.15"/><rect id="rect3003" width="226" height="565" x="1377.85" y="847.5" style="fill:#0f0;fill-opacity:.15"/><rect id="rect3004" width="226" height="282.5" x="1377.85" y="1130" style="fill:#0f0;fill-opacity:.15"/><path style="fill:#0f0;fill-opacity:.15" id="path3011" d="M 1377.85,0 V 1638.5 L 0,1327.57 A 1412.5,1412.5 0 0 1 1377.85,0"/><path style="fill:#0f0;fill-opacity:.15" id="path3012" d="M 1377.85,282.5 V 1638.5 L 275.57,1389.75 A 1130,1130 0 0 1 1377.85,282.5"/><path style="fill:#0f0;fill-opacity:.15" id="path3013" d="M 530.35,1412.5 A 847.5,847.5 0 0 1 1377.85,565 V 1638.5 L 530.35,1447.25 z"/><path style="fill:#0f0;fill-opacity:.15" id="path3014" d="M 812.85,1412.5 A 565,565 0 0 1 1377.85,847.5 V 1638.5 L 812.85,1511 z"/><path style="fill:#0f0;fill-opacity:.15" id="path3015" d="M 1095.35,1412.5 A 282.5,282.5 0 0 1 1377.85,1130 V 1638.5 L 1095.35,1574.75 z"/></svg>