<svg xmlns="http://www.w3.org/2000/svg" xmlns:svg="http://www.w3.org/2000/svg" id="svg2" width="1921" height="960.5" version="1.1"><metadata id="metadata3033"/><rect id="rect3011" width="226" height="847.5" x="847.5" y="0" style="fill:orange;fill-opacity:.25"/><rect id="rect3013" width="226" height="565" x="847.5" y="282.5" style="fill:orange;fill-opacity:.25"/><rect id="rect3015" width="226" height="282.5" x="847.5" y="565" style="fill:orange;fill-opacity:.25"/><rect id="rect3016" width="847.5" height="113" x="0" y="847.5" style="fill:orange;fill-opacity:.25"/><rect id="rect3017" width="565" height="113" x="282.5" y="847.5" style="fill:orange;fill-opacity:.25"/><rect id="rect3018" width="282.5" height="113" x="565" y="847.5" style="fill:orange;fill-opacity:.25"/><rect id="rect3016" width="847.5" height="113" x="1073.5" y="847.5" style="fill:orange;fill-opacity:.25"/><rect id="rect3017" width="565" height="113" x="1073.5" y="847.5" style="fill:orange;fill-opacity:.25"/><rect id="rect3018" width="282.5" height="113" x="1073.5" y="847.5" style="fill:orange;fill-opacity:.25"/><path style="fill:orange;fill-opacity:.25" id="path3017" d="M 0,847.5 A 847.5,847.5 0 0 1 847.5,0 V 847.5 z"/><path style="fill:orange;fill-opacity:.25" id="path3019" d="M 282.5,847.5 A 565,565 0 0 1 847.5,282.5 v 565 z"/><path style="fill:orange;fill-opacity:.25" id="path3021" d="M 565,847.5 A 282.5,282.5 0 0 1 847.5,565 v 282.5 z"/><path style="fill:orange;fill-opacity:.25" id="path3023" d="M 1073.5,847.5 v -847.5 A 847.5,847.5 0 0 1 1921,847.5 z"/><path style="fill:orange;fill-opacity:.25" id="path3025" d="M 1073.5,847.5 v -565 A 565,565 0 0 1 1638.5,847.5 z"/><path style="fill:orange;fill-opacity:.25" id="path3027" d="M 1073.5,847.5 v -282.5 A 282.5,282.5 0 0 1 1356,847.5 z"/></svg>