<svg xmlns="http://www.w3.org/2000/svg" xmlns:svg="http://www.w3.org/2000/svg" id="svg2" width="3051" height="3460" version="1.1"><metadata id="metadata3033"/><rect id="rect3018" width="226" height="847.5" x="1412.5" y="0" style="fill:#00f;fill-opacity:.25"/><rect id="rect3019" width="226" height="565" x="1412.5" y="282.5" style="fill:#00f;fill-opacity:.25"/><rect id="rect3020" width="226" height="282.5" x="1412.5" y="565" style="fill:#00f;fill-opacity:.25"/><path style="fill:#00f;fill-opacity:.25" id="path3017" d="M 0,1412.5 A 1412.5,1412.5 0 0 1 1412.5,0 v 847.5 A 565 565 0 0 0 847.5,1412.5 z"/><path style="fill:#00f;fill-opacity:.25" id="path3018" d="M 282.5,1412.5 A 1130,1130 0 0 1 1412.5,282.5 v 565 A 565 565 0 0 0 847.5,1412.5 z"/><path style="fill:#00f;fill-opacity:.25" id="path3019" d="M 565,1412.5 A 847.5,847.5 0 0 1 1412.5,565 v 282.5 A 565 565 0 0 0 847.5,1412.5 z"/><path style="fill:#00f;fill-opacity:.25" id="path3020" d="M 1638.5,0 A 1412.5,1412.5 0 0 1 3051,1412.5 h -847.5 A 565 565 0 0 0 1638.5,847.5 z"/><path style="fill:#00f;fill-opacity:.25" id="path3021" d="M 1638.5,282.5 A 1130,1130 0 0 1 2768.5,1412.5 h -565 A 565 565 0 0 0 1638.5,847.5 z"/><path style="fill:#00f;fill-opacity:.25" id="path3022" d="M 1638.5,565 A 847.5,847.5 0 0 1 2486,1412.5 h -282.5 A 565 565 0 0 0 1638.5,847.5 z"/><rect id="rect3021" width="847.5" height="226" x="0" y="1412.5" style="fill:#00f;fill-opacity:.25"/><rect id="rect3022" width="565" height="226" x="282.5" y="1412.5" style="fill:#00f;fill-opacity:.25"/><rect id="rect3023" width="282.5" height="226" x="565" y="1412.5" style="fill:#00f;fill-opacity:.25"/><rect id="rect3024" width="847.5" height="226" x="2203.5" y="1412.5" style="fill:#00f;fill-opacity:.25"/><rect id="rect3025" width="565" height="226" x="2203.5" y="1412.5" style="fill:#00f;fill-opacity:.25"/><rect id="rect3026" width="282.5" height="226" x="2203.5" y="1412.5" style="fill:#00f;fill-opacity:.25"/><path style="fill:#00f;fill-opacity:.25" id="path3024" d="M 0,1638.5 h 847.5 A 565,565 0 0 0 1178.815,2152.908 L 768.423,2895.608 A 1412.5,1412.5 0 0 1 0,1638.5"/><path style="fill:#00f;fill-opacity:.25" id="path3025" d="M 282.5,1638.5 h 565 A 565,565 0 0 0 1178.815,2152.908 L 905.136,2648.194 A 1130,1130 0 0 1 282.5,1638.5"/><path style="fill:#00f;fill-opacity:.25" id="path3026" d="M 565,1638.5 h 282.5 A 565,565 0 0 0 1178.815,2152.908 L 1041.905,2400.679 A 847.5,847.5 0 0 1 565,1638.5"/><path style="fill:#00f;fill-opacity:.25" id="path3027" d="M 2203.5,1638.5 h 847.5 A 1412.5,1412.5 0 0 1 2282.577,2895.608 L 1872.185,2152.908 A 565,565 0 0 0 2203.5,1638.5"/><path style="fill:#00f;fill-opacity:.25" id="path3028" d="M 2203.5,1638.5 h 565 A 1130,1130 0 0 1 2145.864,2648.194 L 1872.185,2152.908 A 565,565 0 0 0 2203.5,1638.5"/><path style="fill:#00f;fill-opacity:.25" id="path3028" d="M 2203.5,1638.5 h 282.5 A 847.5,847.5 0 0 1 2009.095,2400.679 L 1872.185,2152.908 A 565,565 0 0 0 2203.5,1638.5"/></svg>