<svg xmlns="http://www.w3.org/2000/svg" xmlns:svg="http://www.w3.org/2000/svg" id="svg2" width="3051" height="3460" version="1.1"><metadata id="metadata3033"/><rect id="rect3000" width="1412.5" height="226" x="0" y="1412.5" style="fill:red;fill-opacity:.15"/><rect id="rect3001" width="1130" height="226" x="282.5" y="1412.5" style="fill:red;fill-opacity:.15"/><rect id="rect3002" width="847.5" height="226" x="565" y="1412.5" style="fill:red;fill-opacity:.15"/><rect id="rect3003" width="565" height="226" x="847.5" y="1412.5" style="fill:red;fill-opacity:.15"/><rect id="rect3004" width="282.5" height="226" x="1130" y="1412.5" style="fill:red;fill-opacity:.15"/><rect id="rect3000" width="1412.5" height="226" x="1638.5" y="1412.5" style="fill:red;fill-opacity:.15"/><rect id="rect3001" width="1130" height="226" x="1638.5" y="1412.5" style="fill:red;fill-opacity:.15"/><rect id="rect3002" width="847.5" height="226" x="1638.5" y="1412.5" style="fill:red;fill-opacity:.15"/><rect id="rect3003" width="565" height="226" x="1638.5" y="1412.5" style="fill:red;fill-opacity:.15"/><rect id="rect3004" width="282.5" height="226" x="1638.5" y="1412.5" style="fill:red;fill-opacity:.15"/><path style="fill:red;fill-opacity:.15" id="path3011" d="M 0,1412.5 A 1412.5,1412.5 0 0 1 413.712,413.712 L 1412.5,1412.5 z"/><path style="fill:red;fill-opacity:.15" id="path3011" d="M 282.5,1412.5 A 1130,1130 0 0 1 613.469,613.469 L 1412.5,1412.5 z"/><path style="fill:red;fill-opacity:.15" id="path3011" d="M 565,1412.5 A 847.5,847.5 0 0 1 813.227,813.227 L 1412.5,1412.5 z"/><path style="fill:red;fill-opacity:.15" id="path3011" d="M 847.5,1412.5 A 565,565 0 0 1 1012.985,1012.985 L 1412.5,1412.5 z"/><path style="fill:red;fill-opacity:.15" id="path3011" d="M 1130,1412.5 A 282.5,282.5 0 0 1 1212.742,1212.742 L 1412.5,1412.5 z"/><path style="fill:red;fill-opacity:.15" id="path3011" d="M 1638.5,1412.5 L 1838.258,1212.742 A 282.5,282.5 0 0 1 1921,1412.5 z"/><path style="fill:red;fill-opacity:.15" id="path3011" d="M 1638.5,1412.5 L 2038.015,1012.985 A 565,565 0 0 1 2203.5,1412.5 z"/><path style="fill:red;fill-opacity:.15" id="path3011" d="M 1638.5,1412.5 L 2237.773,813.227 A 847.5,847.5 0 0 1 2486,1412.5 z"/><path style="fill:red;fill-opacity:.15" id="path3011" d="M 1638.5,1412.5 L 2437.531,613.4693 A 1130,1130 0 0 1 2768.5,1412.5 z"/><path style="fill:red;fill-opacity:.15" id="path3011" d="M 1638.5,1412.5 L 2637.288,413.712 A 1412.5,1412.5 0 0 1 3051,1412.5 z"/><path style="fill:red;fill-opacity:.15" id="path4000" d="M 1412.5,1638.5 L 1212.742,1838.258 A 282.5,282.5 0 0 1 1130,1638.5 z"/><path style="fill:red;fill-opacity:.15" id="path4000" d="M 1412.5,1638.5 L 1012.985,2038.015 A 565,565 0 0 1 847.5,1638.5 z"/><path style="fill:red;fill-opacity:.15" id="path4000" d="M 1412.5,1638.5 L 813.227,2237.773 A 847.5,847.5 0 0 1 565,1638.5 z"/><path style="fill:red;fill-opacity:.15" id="path4000" d="M 1412.5,1638.5 L 613.4693,2437.531 A 1130,1130 0 0 1 282.5,1638.5 z"/><path style="fill:red;fill-opacity:.15" id="path4000" d="M 1412.5,1638.5 L 413.7117,2637.288 A 1412.5,1412.5 0 0 1 0,1638.5 z"/><path style="fill:red;fill-opacity:.15" id="path4000" d="M 1638.5,1638.5 L 1838.258,1838.258 A 282.5,282.5 0 0 0 1921,1638.5 z"/><path style="fill:red;fill-opacity:.15" id="path4000" d="M 1638.5,1638.5 L 2038.015,2038.015 A 565,565 0 0 0 2203.5,1638.5 z"/><path style="fill:red;fill-opacity:.15" id="path4000" d="M 1638.5,1638.5 L 2237.773,2237.773 A 847.5,847.5 0 0 0 2486,1638.5 z"/><path style="fill:red;fill-opacity:.15" id="path4000" d="M 1638.5,1638.5 L 2437.531,2437.531 A 1130,1130 0 0 0 2768.5,1638.5 z"/><path style="fill:red;fill-opacity:.15" id="path4000" d="M 1638.5,1638.5 L 2637.288,2637.288 A 1412.5,1412.5 0 0 0 3051,1638.5 z"/></svg>